<svg xmlns="http://www.w3.org/2000/svg" xmlns:xlink="http://www.w3.org/1999/xlink" width="1923" height="732" viewBox="0 0 1923 732"><defs><style>.a{fill:url(#a);}.b{opacity:0.44;clip-path:url(#c);}.c{fill:url(#d);}.d{fill:url(#e);}.e{fill:url(#f);}.f{fill:url(#g);}.g{fill:url(#h);}.h{fill:url(#i);}</style><linearGradient id="a" y1="0.057" x2="1" y2="1" gradientUnits="objectBoundingBox"><stop offset="0" stop-color="#8dd9c0"/><stop offset="1" stop-color="#19a2a5"/></linearGradient><clipPath id="c"><rect class="a" width="1920" height="660" transform="translate(-0.373 -0.73)"/></clipPath><linearGradient id="d" x1="0.5" y1="0.162" x2="0.5" y2="1.504" xlink:href="#a"/><linearGradient id="e" x1="0.5" y1="0.028" x2="0.5" y2="0.573" xlink:href="#a"/><linearGradient id="f" x1="1.065" y1="0.865" x2="0.401" y2="1.043" xlink:href="#a"/><linearGradient id="g" x1="0.5" y1="1.025" x2="0.5" y2="0.531" xlink:href="#a"/><linearGradient id="h" x1="0.5" y1="0.194" x2="0.5" y2="1.371" xlink:href="#a"/><linearGradient id="i" x1="0.294" y1="1.161" x2="0.294" y2="0.151" gradientUnits="objectBoundingBox"><stop offset="0" stop-color="#8dd9c0"/><stop offset="0.38" stop-color="#61c4b6"/><stop offset="1" stop-color="#19a2a5"/></linearGradient></defs><g transform="translate(1 -141)"><rect class="a" width="1923" height="732" transform="translate(-1 141)"/><g class="b" transform="translate(0.373 212.73)"><g transform="translate(-149.832 65.329)"><path class="c" d="M483.669,323.855V213.231h.663a2.827,2.827,0,0,0,2.822-2.829v-1.6a2.828,2.828,0,0,0-2.822-2.835h-3.839a20.471,20.471,0,0,0,.272-3.2,21.059,21.059,0,0,0-10.027-17.945,33.116,33.116,0,0,1-9.427-8.789,2.419,2.419,0,0,0-.688-3.991L460,162.46h-.72l-.619,9.578a2.414,2.414,0,0,0-.682,3.991,33.014,33.014,0,0,1-9.44,8.789,21.067,21.067,0,0,0-10.021,17.945,20.46,20.46,0,0,0,.272,3.2h-3.719a2.829,2.829,0,0,0-2.829,2.835v1.6a2.828,2.828,0,0,0,2.829,2.829h.543V323.855H418.9l-.815-42.69h4.369v-5.733h-4.477l-.852-44.71h3.031v-5.74h-3.138l-.777-40.941h3.454v-3.315h-2.02v-1.118h-2.065v-14.9h2.065v-1.421h-3.245a9.21,9.21,0,0,0,.429-2.81,9.471,9.471,0,0,0-4.521-8.069,15.021,15.021,0,0,1-4.237-3.965,1.086,1.086,0,0,0-.309-1.793l-.246-3.826a2.589,2.589,0,0,0,.505.05,2.831,2.831,0,0,0,2.81-2.469,2.385,2.385,0,1,1-3.182-3.182,2.828,2.828,0,0,0-.518,5.493l-.253,3.934a1.086,1.086,0,0,0-.309,1.793,14.484,14.484,0,0,1-4.249,3.965,9.488,9.488,0,0,0-4.508,8.069,9.207,9.207,0,0,0,.429,2.81H393.03v1.421h1.989v14.9H393.03v1.118h-2.052v3.315h3.479l-.783,40.941h-3.157v5.74h3.05l-.859,44.71h-4.483v5.733H392.6l-.821,42.69H380.13V256.028h.366a1.556,1.556,0,0,0,1.553-1.553v-.89a1.559,1.559,0,0,0-1.553-1.566h-2.115A11.51,11.51,0,0,0,373,240.363a18.125,18.125,0,0,1-5.2-4.843,1.331,1.331,0,0,0-.379-2.2l-.341-5.279h-.392l-.341,5.279a1.337,1.337,0,0,0-.385,2.2,18.038,18.038,0,0,1-5.2,4.843,11.511,11.511,0,0,0-5.38,11.656h-2.052a1.564,1.564,0,0,0-1.56,1.566v.89a1.562,1.562,0,0,0,1.56,1.553h.3v26.658h-7.962a55.81,55.81,0,0,0-24.006-63.943,87.373,87.373,0,0,1-24.922-23.23,6.4,6.4,0,0,0-1.812-10.551l-1.459-22.428a17.053,17.053,0,0,0,2.968.272,16.662,16.662,0,0,0,16.518-14.5,14.007,14.007,0,1,1-18.69-18.69,16.66,16.66,0,0,0-3.025,32.354l-1.484,22.99a6.407,6.407,0,0,0-1.812,10.563,86.815,86.815,0,0,1-24.928,23.217,55.781,55.781,0,0,0-24,63.943h-13.26q.095-1.307.095-2.633A36.056,36.056,0,0,0,194,244.253l-2.279-6.933c-.025-.07-.234-.133-.524-.171l-1.244-19.226a.155.155,0,0,0-.158-.114.161.161,0,0,0-.17.114l-1.244,19.226c-.29.038-.492.1-.518.171l-2.279,6.933a36.082,36.082,0,0,0-30.257,46.472H143.055v5.4h5.714v27.725h-8.764l-.556-29.291h3.4V290.1h-3.485l-.657-34.766h2.355V250.87h-2.437l-.606-31.829h2.69v-2.582h-1.579v-.865h-1.6v-11.58h1.6v-1.1h-2.519a7.374,7.374,0,0,0-3.189-8.461,11.759,11.759,0,0,1-3.29-3.075v-.006a.848.848,0,0,0,.265-.619.839.839,0,0,0-.511-.777L129.694,187a2.725,2.725,0,0,0,.4.044,2.208,2.208,0,0,0,2.185-1.926,1.856,1.856,0,1,1-2.475-2.475,2.2,2.2,0,0,0-.4,4.275l-.2,3.056a.844.844,0,0,0-.24,1.4v.006a11.242,11.242,0,0,1-3.309,3.075,7.357,7.357,0,0,0-3.17,8.461h-2.519v1.1h1.553v11.58h-1.553v.865h-1.591v2.582h2.7l-.606,31.829h-2.456v4.464h2.368l-.663,34.766h-3.492v4.464h3.4l-.562,29.291H96.412V266.377h.4a1.694,1.694,0,0,0,1.7-1.692v-.966a1.7,1.7,0,0,0-1.7-1.692h-2.3a12.83,12.83,0,0,0,.164-1.92,12.627,12.627,0,0,0-6.017-10.759,20.068,20.068,0,0,1-5.651-5.266,1.453,1.453,0,0,0-.41-2.393l-.373-5.74H81.8l-.379,5.74a1.448,1.448,0,0,0-.4,2.393,19.753,19.753,0,0,1-5.657,5.266,12.636,12.636,0,0,0-6.011,10.759,12.837,12.837,0,0,0,.158,1.92H67.285a1.694,1.694,0,0,0-1.7,1.692v.966a1.69,1.69,0,0,0,1.7,1.692h.322v57.477h-18v88.454H494.119V323.855ZM74.136,290.409H69.47V277.237c0-3.353.991-6.163,2.336-7.028,1.339.865,2.33,3.675,2.33,7.028Zm13.777,0h-11.8V275.836a8.057,8.057,0,0,1,5.9-7.76,8.063,8.063,0,0,1,5.9,7.76Zm6.674,0h-4.66V277.237c0-3.353.985-6.163,2.33-7.028,1.345.865,2.33,3.675,2.33,7.028Zm29.853-74.816h-1.56V206.1a.623.623,0,0,1,.631-.619h.3a.621.621,0,0,1,.625.619Zm2.93,0h-1.56V206.1a.625.625,0,0,1,.625-.619h.309a.625.625,0,0,1,.625.619Zm2.93,0h-1.56V206.1a.625.625,0,0,1,.625-.619h.309a.621.621,0,0,1,.625.619Zm2.93,0h-1.56V206.1a.621.621,0,0,1,.625-.619h.3a.623.623,0,0,1,.631.619Zm2.923,0h-1.56V206.1a.625.625,0,0,1,.625-.619h.309a.621.621,0,0,1,.625.619Zm223.481,62.541h-4.281V266.011c0-3.081.9-5.67,2.141-6.459,1.238.789,2.141,3.378,2.141,6.459Zm12.672,0H361.453v-13.4a7.408,7.408,0,0,1,5.43-7.141,7.409,7.409,0,0,1,5.424,7.141Zm6.144,0h-4.287V266.011c0-3.081.909-5.67,2.14-6.459,1.238.789,2.147,3.378,2.147,6.459Zm20.331-98.525h-2v-12.2a.806.806,0,0,1,.808-.808h.392a.8.8,0,0,1,.8.808Zm3.769,0h-2.008v-12.2a.81.81,0,0,1,.808-.808h.391a.806.806,0,0,1,.808.808Zm3.77,0h-2.008v-12.2a.806.806,0,0,1,.808-.808h.391a.81.81,0,0,1,.808.808Zm3.763,0h-2.008v-12.2a.806.806,0,0,1,.808-.808h.4a.8.8,0,0,1,.8.808Zm3.763,0h-2v-12.2a.8.8,0,0,1,.8-.808h.392a.806.806,0,0,1,.808.808Zm32.65,73.7h-7.766V231.34c0-5.594,1.642-10.286,3.883-11.719,2.242,1.433,3.883,6.125,3.883,11.719Zm22.99,0H449.794v-24.3a13.449,13.449,0,0,1,9.85-12.95,13.443,13.443,0,0,1,9.844,12.95Zm11.138,0h-7.779V231.34c0-5.594,1.648-10.286,3.89-11.719,2.241,1.433,3.889,6.125,3.889,11.719Z" transform="translate(535.813 3.368)"/><path class="d" d="M132.135,360.457V620.232h751.5V362.641h2.374v-2.248H880.83a14.675,14.675,0,0,0-9.168-18.5c.006-.069.025-.145.025-.221a5.122,5.122,0,0,0-3.378-4.8l-.726-2.185a1.2,1.2,0,0,0,.234-.682,1.234,1.234,0,0,0-.732-1.124l-.448-6.908a.062.062,0,0,0-.063-.05c-.038,0-.07.025-.07.05l-.442,6.908a1.224,1.224,0,0,0-.732,1.124,1.242,1.242,0,0,0,.227.682l-.72,2.185a5.113,5.113,0,0,0-3.378,4.8c0,.076.013.152.019.221a14.7,14.7,0,0,0-9.168,18.5h-5.184v.063h-.511V334.411h.278a1.19,1.19,0,0,0,1.181-1.193v-.669a1.184,1.184,0,0,0-1.181-1.187h-1.6a8.371,8.371,0,0,0,.114-1.332,8.822,8.822,0,0,0-4.193-7.508,13.869,13.869,0,0,1-3.946-3.675.992.992,0,0,0,.322-.739,1.01,1.01,0,0,0-.606-.934l-.259-4h-.3l-.259,4a1.017,1.017,0,0,0-.284,1.673,13.784,13.784,0,0,1-3.946,3.675,8.808,8.808,0,0,0-4.193,7.508,8.37,8.37,0,0,0,.114,1.332h-1.553a1.186,1.186,0,0,0-1.187,1.187v.669a1.191,1.191,0,0,0,1.187,1.193h.221v16.606h-3.845a12.6,12.6,0,0,0,1.541-5.942c0-7.211-6.567-13.518-16.417-17.054a52.2,52.2,0,0,1-16.133-9,2.294,2.294,0,0,0,.271-1.036,2.32,2.32,0,0,0-1.383-2.115l-.587-9.092h-.682l-.587,9.092a2.316,2.316,0,0,0-1.389,2.115,2.224,2.224,0,0,0,.278,1.036,51.754,51.754,0,0,1-16.132,9c-9.85,3.536-16.417,9.844-16.417,17.054a12.047,12.047,0,0,0,.562,3.517H752.78a31.238,31.238,0,0,0-26.21-40.259l-1.97-6c-.025-.063-.2-.12-.454-.164l-1.08-16.644c0-.05-.063-.1-.139-.1a.134.134,0,0,0-.139.1l-1.08,16.644c-.253.044-.436.1-.448.164l-1.983,6a31.266,31.266,0,0,0-25.439,19.605l-.335-17.528h1.642V307.3h-1.7l-.417-22.238H694.9v-1.8h-1.1v-.606h-1.118V274.56H693.8v-.77h-1.762a5.056,5.056,0,0,0,.234-1.528,5.123,5.123,0,0,0-2.462-4.376,8.215,8.215,0,0,1-2.3-2.153h0a.605.605,0,0,0,.189-.436.566.566,0,0,0-.36-.537l-.133-2.084a2.055,2.055,0,0,0,.278.025,1.54,1.54,0,0,0,1.528-1.339,1.3,1.3,0,1,1-1.73-1.73,1.54,1.54,0,0,0-.278,2.993l-.139,2.134a.57.57,0,0,0-.354.537.6.6,0,0,0,.183.436h0a7.909,7.909,0,0,1-2.3,2.153,5.132,5.132,0,0,0-2.456,4.376,5.06,5.06,0,0,0,.24,1.528h-1.762v.77h1.08v8.095h-1.08v.606H679.3v1.8h1.894l-.429,22.238H679.05v3.113H680.7l-.467,24.284h-2.431v3.119h2.374l-.208,10.987h-8.436a33.472,33.472,0,0,0,4.1-15.836c0-19.239-17.521-36.073-43.788-45.493-17.054-6.118-31.76-14.251-43.094-23.8a6.1,6.1,0,0,0-2.9-8.606L584.288,230.8h-1.825l-1.572,24.259a6.163,6.163,0,0,0-3.687,5.645,6.094,6.094,0,0,0,.8,2.968c-11.353,9.591-25.907,17.635-43.1,23.8a106.062,106.062,0,0,0-13.721,6V223.346h.448a1.912,1.912,0,0,0,1.913-1.913v-1.086a1.907,1.907,0,0,0-1.913-1.907h-2.589a14.526,14.526,0,0,0,.177-2.166,14.243,14.243,0,0,0-6.775-12.142,22.473,22.473,0,0,1-6.384-5.942,1.65,1.65,0,0,0,.524-1.2,1.634,1.634,0,0,0-.985-1.5l-.417-6.478h-.486l-.423,6.478a1.634,1.634,0,0,0-.985,1.5,1.651,1.651,0,0,0,.524,1.2,22.3,22.3,0,0,1-6.377,5.942,14.234,14.234,0,0,0-6.781,12.142,14.526,14.526,0,0,0,.177,2.166h-2.513a1.905,1.905,0,0,0-1.907,1.907v1.086a1.911,1.911,0,0,0,1.907,1.913h.373v44.6a68.576,68.576,0,0,0-28.944-36.413,107.288,107.288,0,0,1-30.573-28.5,7.862,7.862,0,0,0-2.229-12.944l-1.781-27.51a20.88,20.88,0,0,0,3.631.341,20.457,20.457,0,0,0,20.268-17.793,17.181,17.181,0,1,1-22.926-22.926,20.437,20.437,0,0,0-3.706,39.69l-1.831,28.2a7.857,7.857,0,0,0-2.216,12.95,106.5,106.5,0,0,1-30.579,28.5,68.428,68.428,0,0,0-29.443,78.434H342.092c.076-1.067.12-2.141.12-3.233a44.219,44.219,0,0,0-39.084-43.915l-2.8-8.505c-.025-.082-.278-.164-.638-.221l-1.522-23.564a.19.19,0,0,0-.2-.152.186.186,0,0,0-.2.152l-1.528,23.564c-.36.057-.606.139-.638.221l-2.791,8.505a44.244,44.244,0,0,0-37.114,57H240.63v6.642h7.009v34h-15.88l-.9-47.387h4.167V307.6h-4.268l-.815-42.646h2.892v-5.474H229.84l-.745-39.053h3.3v-3.163h-1.938V216.2h-1.964V201.992h1.964v-1.364h-3.094a8.771,8.771,0,0,0,.41-2.684,9.031,9.031,0,0,0-4.306-7.691,14.46,14.46,0,0,1-4.047-3.782h0a1.025,1.025,0,0,0,.328-.751,1.041,1.041,0,0,0-.619-.96l-.24-3.65a3.016,3.016,0,0,0,.486.051,2.706,2.706,0,0,0,2.677-2.362,2.273,2.273,0,1,1-3.031-3.031,2.7,2.7,0,0,0-.493,5.241l-.24,3.751a1.036,1.036,0,0,0-.625.96,1.025,1.025,0,0,0,.328.751h-.006a14.03,14.03,0,0,1-4.047,3.782,9.045,9.045,0,0,0-4.306,7.691,8.773,8.773,0,0,0,.417,2.684h-3.094v1.364h1.9V216.2h-1.9v1.061H205v3.163h3.321l-.751,39.053h-3.012v5.474h2.911l-.821,42.646h-4.275v5.474h4.167l-.9,47.387h-8.006v-84.6h.688a2.918,2.918,0,0,0,2.911-2.923V271.3a2.918,2.918,0,0,0-2.911-2.923h-3.959a21.459,21.459,0,0,0-10.058-21.8,34.132,34.132,0,0,1-9.718-9.067,2.49,2.49,0,0,0-.707-4.111l-.638-9.869H172.5l-.644,9.869a2.5,2.5,0,0,0-.707,4.117,33.956,33.956,0,0,1-9.718,9.061,21.457,21.457,0,0,0-10.058,21.8h-3.833a2.92,2.92,0,0,0-2.917,2.923v1.642a2.92,2.92,0,0,0,2.917,2.923h.562v84.6Zm709.958-18.481c0-2.336.688-4.306,1.623-4.893.934.587,1.629,2.557,1.629,4.893v9.193h-3.252Zm-9.641-.966a4.274,4.274,0,1,1,8.234,0v10.159h-6.238v-.151h-2Zm-4.635.966c0-2.336.688-4.306,1.629-4.893.941.587,1.623,2.557,1.623,4.893v9.042h-3.252ZM690.63,276.031a.439.439,0,0,1,.442-.442h.215a.438.438,0,0,1,.436.442v6.623H690.63Zm-2.039,0a.434.434,0,0,1,.436-.442h.215a.438.438,0,0,1,.436.442v6.623h-1.086Zm-2.052,0a.443.443,0,0,1,.442-.442h.215a.438.438,0,0,1,.436.442v6.623h-1.092Zm-2.039,0a.434.434,0,0,1,.436-.442h.215a.438.438,0,0,1,.436.442v6.63H684.5Zm-2.052,0a.443.443,0,0,1,.442-.442h.215a.438.438,0,0,1,.436.442v6.623h-1.092Zm-168.58-40.442c0-3.776,1.111-6.952,2.627-7.918,1.515.966,2.627,4.142,2.627,7.918v14.863h-5.253Zm-15.589-1.566a6.909,6.909,0,1,1,13.31,0v16.429h-13.31Zm-7.489,1.566c0-3.776,1.111-6.952,2.627-7.918,1.515.966,2.633,4.142,2.633,7.918v14.863h-5.26ZM224.9,204.549a.772.772,0,0,1,.77-.764h.373a.768.768,0,0,1,.77.764V216.2H224.9Zm-3.593,0a.772.772,0,0,1,.77-.764h.379a.767.767,0,0,1,.764.764V216.2h-1.913Zm-3.593,0a.772.772,0,0,1,.77-.764h.379a.772.772,0,0,1,.77.764V216.2h-1.919Zm-3.593,0a.772.772,0,0,1,.77-.764h.379a.767.767,0,0,1,.764.764V216.2h-1.913Zm-3.586.006a.768.768,0,0,1,.764-.77h.379a.768.768,0,0,1,.764.77V216.2h-1.907Zm-24.057,89.97c0-5.765,1.7-10.6,4-12.079,2.317,1.477,4.009,6.314,4.009,12.079v22.649h-8.013Zm-23.766-2.393a13.89,13.89,0,0,1,10.153-13.361,13.877,13.877,0,0,1,10.147,13.361v25.042h-20.3Zm-11.4,2.393c0-5.765,1.692-10.6,4-12.079,2.311,1.477,4.009,6.314,4.009,12.079v22.649h-8.013Z" transform="translate(974.38 -36.095)"/><path class="e" d="M897.405,455.582v-186.4h1.124a4.775,4.775,0,0,0,4.761-4.773v-2.7a4.771,4.771,0,0,0-4.761-4.773h-6.466a35.006,35.006,0,0,0-16.442-35.63,55.915,55.915,0,0,1-15.886-14.819,4.077,4.077,0,0,0-1.156-6.718l-1.042-16.139h-1.212l-1.042,16.139a4.075,4.075,0,0,0-1.155,6.725,55.556,55.556,0,0,1-15.9,14.813,35.078,35.078,0,0,0-16.436,35.63H815.53a4.768,4.768,0,0,0-4.767,4.773v2.7a4.772,4.772,0,0,0,4.767,4.773h.915v186.4h-28.18l-1.358-71.924h7.356v-9.673h-7.545l-1.433-75.333h5.108v-9.68h-5.285L783.789,220h5.828V214.4h-3.41v-1.875h-3.473v-25.1h3.473v-2.393h-5.468a15.734,15.734,0,0,0,.72-4.742,15.918,15.918,0,0,0-7.615-13.588,25.314,25.314,0,0,1-7.141-6.687,1.823,1.823,0,0,0-.524-3.018l-.417-6.447a5.41,5.41,0,0,0,.852.082,4.781,4.781,0,0,0,4.742-4.161A4.02,4.02,0,1,1,766,141.108a4.767,4.767,0,0,0-.871,9.263l-.423,6.623a1.819,1.819,0,0,0-1.1,1.686,1.841,1.841,0,0,0,.575,1.332,24.447,24.447,0,0,1-7.154,6.687,15.949,15.949,0,0,0-7.6,13.588,15.751,15.751,0,0,0,.726,4.742H744.68v2.393h3.353v25.1H744.68V214.4h-3.46V220h5.866l-1.32,68.975h-5.317v9.68h5.133l-1.446,75.333h-7.552v9.673h7.369l-1.377,71.924H722.94V341.3h.619a2.626,2.626,0,0,0,2.62-2.62v-1.5a2.633,2.633,0,0,0-2.62-2.633h-3.568a19.044,19.044,0,0,0,.253-2.961,19.582,19.582,0,0,0-9.313-16.682,30.509,30.509,0,0,1-8.757-8.164,2.238,2.238,0,0,0,.713-1.642,2.283,2.283,0,0,0-1.351-2.071l-.581-8.89h-.663l-.581,8.89a2.283,2.283,0,0,0-1.351,2.071,2.238,2.238,0,0,0,.713,1.642,30.368,30.368,0,0,1-8.758,8.164,19.576,19.576,0,0,0-9.307,16.682,19.882,19.882,0,0,0,.24,2.961h-3.454a2.634,2.634,0,0,0-2.627,2.633v1.5a2.627,2.627,0,0,0,2.627,2.62h.512v44.919h-13.43a93.986,93.986,0,0,0-40.442-107.744,147.308,147.308,0,0,1-42-39.148,10.788,10.788,0,0,0-3.056-17.78l-2.45-37.79a28.9,28.9,0,0,0,4.988.461,28.082,28.082,0,0,0,27.839-24.429,23.6,23.6,0,1,1-31.488-31.5,28.074,28.074,0,0,0-5.1,54.522l-2.507,38.737a10.8,10.8,0,0,0-3.043,17.793,146.221,146.221,0,0,1-42.008,39.135A93.985,93.985,0,0,0,485.17,386.215H462.824c.107-1.471.17-2.942.17-4.433a60.769,60.769,0,0,0-53.689-60.338l-3.839-11.681c-.044-.114-.392-.221-.884-.29l-2.09-32.379a.289.289,0,0,0-.556,0l-2.09,32.379c-.5.069-.84.177-.878.29l-3.845,11.681a60.78,60.78,0,0,0-50.98,78.307H323.459v9.124h9.623v46.705H318.32l-.935-49.351h5.721V398.7H317.24l-1.111-58.576H320.1v-7.52h-4.117l-1.017-53.638h4.527v-4.35h-2.658v-1.452h-2.7V253.651h2.7v-1.869h-4.249a12.072,12.072,0,0,0,.562-3.687,12.431,12.431,0,0,0-5.923-10.576,19.673,19.673,0,0,1-5.55-5.184v-.006a1.411,1.411,0,0,0,.455-1.035,1.429,1.429,0,0,0-.865-1.313l-.316-5.007a3.8,3.8,0,0,0,.657.07,3.717,3.717,0,0,0,3.687-3.239,3.127,3.127,0,1,1-4.167-4.174,3.707,3.707,0,0,0-.676,7.2l-.335,5.146a1.428,1.428,0,0,0-.41,2.349v.006a18.889,18.889,0,0,1-5.563,5.184,12.462,12.462,0,0,0-5.91,10.576,12.078,12.078,0,0,0,.568,3.688h-4.25v1.869h2.608v19.517h-2.608v1.452h-2.683v4.35h4.559L285.4,332.608h-4.136v7.52h3.991L284.135,398.7H278.25v7.526h5.74l-.947,49.351H244.861V358.736h.676a2.851,2.851,0,0,0,2.854-2.854v-1.623a2.861,2.861,0,0,0-2.854-2.86H241.66a21,21,0,0,0,.271-3.233A21.312,21.312,0,0,0,231.8,330.032a33.331,33.331,0,0,1-9.522-8.871,2.455,2.455,0,0,0-.7-4.035l-.619-9.667h-.726l-.631,9.667a2.47,2.47,0,0,0-1.471,2.248,2.425,2.425,0,0,0,.783,1.787,33.013,33.013,0,0,1-9.528,8.871,21.3,21.3,0,0,0-10.128,18.134,21.822,21.822,0,0,0,.265,3.233h-3.751a2.862,2.862,0,0,0-2.86,2.86v1.623a2.852,2.852,0,0,0,2.86,2.854h.549v96.846H165.992V604.639H915.021V455.582Zm-690.081-56.36h-7.855V377.041c0-5.657,1.661-10.4,3.921-11.845,2.267,1.446,3.934,6.188,3.934,11.845Zm23.217,0H210.652V374.679A13.591,13.591,0,0,1,220.6,361.6a13.591,13.591,0,0,1,9.945,13.083Zm11.245,0h-7.855V377.041c0-5.657,1.667-10.4,3.927-11.845,2.267,1.446,3.927,6.188,3.927,11.845Zm50.3-126.055h-2.627V257.174a1.058,1.058,0,0,1,1.061-1.055h.518a1.051,1.051,0,0,1,1.048,1.055Zm4.938,0H294.4v-16a1.055,1.055,0,0,1,1.054-1.048h.518a1.055,1.055,0,0,1,1.054,1.048Zm4.938,0h-2.633v-16a1.06,1.06,0,0,1,1.061-1.048h.518a1.055,1.055,0,0,1,1.054,1.048Zm4.938,0h-2.633v-16a1.056,1.056,0,0,1,1.061-1.048h.511a1.057,1.057,0,0,1,1.061,1.048Zm4.931,0H309.2v-16a1.059,1.059,0,0,1,1.055-1.048h.518a1.056,1.056,0,0,1,1.061,1.048Zm376.58,105.37h-7.223V358.111c0-5.19,1.528-9.547,3.612-10.879,2.084,1.332,3.612,5.689,3.612,10.879Zm21.354,0h-18.3V355.958a9.494,9.494,0,1,1,18.3,0Zm10.343,0h-7.223V358.111c0-5.19,1.534-9.547,3.612-10.879,2.084,1.332,3.612,5.689,3.612,10.879Zm34.267-166.01H751V191.955a1.36,1.36,0,0,1,1.358-1.357h.663a1.36,1.36,0,0,1,1.358,1.357Zm6.352,0h-3.384V191.955a1.365,1.365,0,0,1,1.364-1.357h.663a1.364,1.364,0,0,1,1.358,1.357Zm6.346,0h-3.384V191.955a1.361,1.361,0,0,1,1.364-1.357h.663a1.359,1.359,0,0,1,1.357,1.357Zm6.346,0h-3.378V191.955A1.359,1.359,0,0,1,771.4,190.6h.663a1.36,1.36,0,0,1,1.358,1.357Zm6.346,0h-3.378V191.955a1.36,1.36,0,0,1,1.358-1.357h.656a1.361,1.361,0,0,1,1.364,1.357Zm55.021,124.192h-13.1V299.687c0-9.427,2.772-17.332,6.548-19.744,3.782,2.412,6.554,10.317,6.554,19.744Zm38.731,0H840.338V295.772a22.68,22.68,0,0,1,16.594-21.834,22.682,22.682,0,0,1,16.587,21.834Zm18.766,0H879.176V299.687c0-9.427,2.778-17.332,6.554-19.744,3.782,2.412,6.554,10.317,6.554,19.744Z" transform="translate(1154.3 -3.732)"/><path class="f" d="M733.3,427.3a26.614,26.614,0,0,0-16.619-33.528c.013-.126.044-.265.044-.4a9.26,9.26,0,0,0-6.131-8.694l-1.307-3.965a2.18,2.18,0,0,0,.423-1.238,2.253,2.253,0,0,0-1.326-2.039l-.815-12.515a.109.109,0,0,0-.12-.095.123.123,0,0,0-.12.095l-.808,12.515a2.169,2.169,0,0,0-.909,3.277l-1.307,3.965a9.255,9.255,0,0,0-6.125,8.694c0,.133.032.271.038.4A26.616,26.616,0,0,0,681.606,427.3h-9.4v.107h-.922v-47.2h.493a2.152,2.152,0,0,0,2.147-2.159v-1.212a2.145,2.145,0,0,0-2.147-2.147h-2.9a15.248,15.248,0,0,0,.2-2.418,15.969,15.969,0,0,0-7.6-13.607A25.239,25.239,0,0,1,654.335,352a1.856,1.856,0,0,0,.587-1.345,1.814,1.814,0,0,0-1.1-1.68l-.467-7.255H652.8l-.474,7.255a1.818,1.818,0,0,0-1.1,1.68,1.856,1.856,0,0,0,.587,1.345,24.849,24.849,0,0,1-7.154,6.661,15.969,15.969,0,0,0-7.6,13.607,15.239,15.239,0,0,0,.208,2.418h-2.822a2.144,2.144,0,0,0-2.141,2.147v1.212a2.15,2.15,0,0,0,2.141,2.159h.411V410.3h-6.977a22.753,22.753,0,0,0,2.791-10.766c0-13.07-11.9-24.5-29.746-30.9a94.5,94.5,0,0,1-29.241-16.309,4.107,4.107,0,0,0,.5-1.875,4.187,4.187,0,0,0-2.507-3.833l-1.067-16.486h-1.237l-1.067,16.486a4.183,4.183,0,0,0-2.513,3.833,4.037,4.037,0,0,0,.5,1.875c-7.728,6.56-17.522,12.1-29.241,16.309-17.85,6.4-29.752,17.831-29.752,30.9a21.592,21.592,0,0,0,1.023,6.377h-5.108a56.628,56.628,0,0,0-47.5-72.966l-3.574-10.873c-.038-.114-.36-.215-.827-.29l-1.951-30.156a.261.261,0,0,0-.505,0l-1.951,30.156c-.461.076-.789.177-.821.29l-3.58,10.873A56.7,56.7,0,0,0,394.4,368.482l-.6-31.766h2.974v-5.651h-3.088l-.764-40.29h3.4v-3.264h-1.989V286.4H392.3V271.737h2.033v-1.4h-3.2a8.876,8.876,0,0,0,.429-2.772,9.321,9.321,0,0,0-4.451-7.931,14.648,14.648,0,0,1-4.174-3.9h-.006a1.07,1.07,0,0,0-.3-1.762l-.246-3.77a3.251,3.251,0,0,0,.5.051,2.8,2.8,0,0,0,2.766-2.431,2.349,2.349,0,1,1-3.132-3.138,2.789,2.789,0,0,0-.505,5.418l-.253,3.871a1.075,1.075,0,0,0-.3,1.762h-.006a14.084,14.084,0,0,1-4.174,3.9,9.315,9.315,0,0,0-4.445,7.931,9.065,9.065,0,0,0,.429,2.772h-3.195v1.4h1.964V286.4h-1.964v1.111h-2.014v3.264h3.422l-.77,40.29H367.6v5.651h2.993l-.84,44h-4.407v5.657h4.306l-.379,19.915h-15.3a60.571,60.571,0,0,0,7.444-28.7c0-34.873-31.747-65.376-79.356-82.45-30.908-11.088-57.559-25.831-78.1-43.151a11.046,11.046,0,0,0,1.427-5.361A11.162,11.162,0,0,0,198.7,236.4l-2.841-43.978h-3.3L189.706,236.4a11.167,11.167,0,0,0-6.687,10.229,11.035,11.035,0,0,0,1.44,5.373c-20.571,17.389-46.945,31.962-78.112,43.138a189.479,189.479,0,0,0-24.859,10.886V178.92H82.3a3.457,3.457,0,0,0,3.46-3.46v-1.976a3.456,3.456,0,0,0-3.46-3.454H77.6A25.493,25.493,0,0,0,65.64,144.1a40.518,40.518,0,0,1-11.555-10.772,2.973,2.973,0,0,0-.84-4.893l-.764-11.738H51.6l-.764,11.738a2.968,2.968,0,0,0-.833,4.893A40.32,40.32,0,0,1,38.445,144.1,25.625,25.625,0,0,0,26.48,170.029H21.927a3.457,3.457,0,0,0-3.466,3.454v1.976a3.459,3.459,0,0,0,3.466,3.46H22.6v80.833a124.129,124.129,0,0,0-46.952-62.27V898.216H738.389V431.364h4.3V427.3ZM35.932,228.043H26.41V201.107c0-6.838,2.008-12.6,4.755-14.352,2.753,1.749,4.767,7.514,4.767,14.352Zm28.174,0H39.973V198.272a16.485,16.485,0,0,1,12.066-15.886,16.485,16.485,0,0,1,12.066,15.886Zm13.651,0H68.229V201.107c0-6.838,2.021-12.6,4.767-14.352,2.747,1.749,4.761,7.514,4.761,14.352ZM375.738,286.4h-1.976v-12a.8.8,0,0,1,.8-.8h.385a.792.792,0,0,1,.8.8Zm3.706.013h-1.97V274.4a.788.788,0,0,1,.8-.8h.385a.791.791,0,0,1,.789.8Zm3.713-.013h-1.976v-12a.791.791,0,0,1,.789-.8h.391a.8.8,0,0,1,.8.8Zm3.7,0h-1.97v-12a.792.792,0,0,1,.8-.8h.385a.787.787,0,0,1,.789.8Zm3.706,0h-1.97v-12a.791.791,0,0,1,.789-.8h.392a.791.791,0,0,1,.789.8ZM643.109,410.3h-5.891V393.921c0-4.237,1.25-7.8,2.949-8.878,1.7,1.073,2.942,4.641,2.942,8.878Zm17.427.278H649.227V410.3h-3.618V392.159a7.746,7.746,0,1,1,14.926,0Zm8.448,0h-5.9V393.921c0-4.237,1.244-7.8,2.949-8.878,1.692,1.073,2.949,4.641,2.949,8.878Z" transform="translate(142.776 -65.322)"/><path class="g" d="M565.325,395.028V244.45h.909a3.853,3.853,0,0,0,3.845-3.852v-2.185a3.854,3.854,0,0,0-3.845-3.852h-5.222a29.116,29.116,0,0,0,.366-4.357,28.671,28.671,0,0,0-13.651-24.429A45.135,45.135,0,0,1,534.9,193.8a3.287,3.287,0,0,0-.935-5.424l-.846-13.039h-.979l-.84,13.039a3.293,3.293,0,0,0-.934,5.43,44.68,44.68,0,0,1-12.843,11.965A28.674,28.674,0,0,0,503.882,230.2a28.305,28.305,0,0,0,.366,4.357h-5.064a3.855,3.855,0,0,0-3.852,3.852V240.6a3.855,3.855,0,0,0,3.852,3.852h.739V395.028H477.167l-1.1-58.1H482v-7.811h-6.093l-1.155-60.855h4.123v-7.817H474.61l-1.061-55.722h4.7v-4.515h-2.759v-1.522h-2.8V178.4h2.8v-1.926h-4.414a12.663,12.663,0,0,0,.581-3.833,12.855,12.855,0,0,0-6.15-10.974,20.382,20.382,0,0,1-5.765-5.4,1.47,1.47,0,0,0,.467-1.073,1.486,1.486,0,0,0-.89-1.364l-.335-5.209a3.49,3.49,0,0,0,.688.069,3.86,3.86,0,0,0,3.826-3.365A3.246,3.246,0,1,1,459.166,141a3.85,3.85,0,0,0-.695,7.482l-.347,5.348a1.481,1.481,0,0,0-.423,2.437,19.951,19.951,0,0,1-5.784,5.4,12.886,12.886,0,0,0-6.137,10.974,12.668,12.668,0,0,0,.587,3.833h-4.414V178.4h2.709v20.281h-2.709v1.522h-2.791v4.515H443.9l-1.067,55.722h-4.294v7.817h4.148l-1.168,60.855h-6.106v7.811h5.954l-1.111,58.1H424.394V302.71h.5a2.121,2.121,0,0,0,2.115-2.122v-1.206a2.122,2.122,0,0,0-2.115-2.128h-2.879a15.631,15.631,0,0,0-7.324-15.874,24.723,24.723,0,0,1-7.078-6.592,1.8,1.8,0,0,0,.581-1.326A1.824,1.824,0,0,0,407.1,271.8l-.467-7.185H406.1l-.467,7.185a1.818,1.818,0,0,0-.518,2.993,24.386,24.386,0,0,1-7.072,6.592,15.7,15.7,0,0,0-7.324,15.874h-2.791a2.123,2.123,0,0,0-2.122,2.128v1.206a2.122,2.122,0,0,0,2.122,2.122h.41v36.281H377.487a75.888,75.888,0,0,0-32.669-87.027,119.1,119.1,0,0,1-33.926-31.627,8.713,8.713,0,0,0-2.469-14.365l-1.976-30.522c1.307.227-12.11-3.738-3.037-.77l-2.027,31.293a8.721,8.721,0,0,0-2.462,14.371,118.136,118.136,0,0,1-33.926,31.621,75.917,75.917,0,0,0-32.675,87.027H214.267c.088-1.181.139-2.374.139-3.574a49.082,49.082,0,0,0-43.365-48.745l-3.107-9.433c-.032-.095-.309-.183-.707-.24l-1.692-26.153a.214.214,0,0,0-.227-.164.211.211,0,0,0-.221.164L163.394,277c-.4.057-.676.145-.707.24l-3.107,9.433A49.113,49.113,0,0,0,118.4,349.933H101.687V357.3h7.779v37.727H97.538l-.751-39.867H101.4v-6.074H96.667l-.9-47.318h3.214v-6.081H95.65l-.821-43.334h3.656v-3.5h-2.14V247.67H94.16V231.9h2.185v-1.5H92.91a10.013,10.013,0,0,0-4.331-11.523,15.933,15.933,0,0,1-4.483-4.186v-.006a1.153,1.153,0,0,0-.328-1.9l-.259-4.047a2.967,2.967,0,0,0,.53.057,3.012,3.012,0,0,0,2.98-2.614,2.526,2.526,0,1,1-3.365-3.372,3,3,0,0,0-.549,5.822l-.272,4.155a1.161,1.161,0,0,0-.328,1.9v.006a15.314,15.314,0,0,1-4.5,4.186,10.064,10.064,0,0,0-4.773,8.543,9.742,9.742,0,0,0,.461,2.98H70.261v1.5H72.37V247.67H70.261v1.181H68.089v3.5h3.687l-.833,43.334H67.6v6.081H70.83l-.909,47.318H65.172v6.074h4.635l-.764,39.867H38.2V316.8h.537a2.307,2.307,0,0,0,2.311-2.3v-1.313a2.311,2.311,0,0,0-2.311-2.3H35.616a17.887,17.887,0,0,0,.221-2.62,17.211,17.211,0,0,0-8.183-14.642,27.143,27.143,0,0,1-7.7-7.167,1.972,1.972,0,0,0-.562-3.258l-.505-7.811h-.581l-.511,7.811a1.975,1.975,0,0,0-.556,3.258,26.721,26.721,0,0,1-7.7,7.167,17.2,17.2,0,0,0-8.183,14.642,17.889,17.889,0,0,0,.215,2.62H-1.448a2.311,2.311,0,0,0-2.311,2.3v1.313a2.307,2.307,0,0,0,2.311,2.3h.442v78.232H-25.511v319.3H579.557v-319.3ZM7.872,349.5H1.532V331.578c0-4.559,1.339-8.4,3.17-9.566,1.831,1.168,3.17,5.007,3.17,9.566Zm18.766,0H10.568V329.677A10.966,10.966,0,0,1,18.6,319.114a10.979,10.979,0,0,1,8.038,10.563Zm9.08,0H29.371V331.578c0-4.559,1.351-8.4,3.176-9.566,1.825,1.168,3.17,5.007,3.17,9.566ZM76.354,247.67H74.233V234.758a.849.849,0,0,1,.852-.852H75.5a.849.849,0,0,1,.852.852Zm3.984,0H78.217V234.751a.852.852,0,0,1,.852-.846h.417a.848.848,0,0,1,.852.846Zm3.991,0H82.2V234.751a.853.853,0,0,1,.859-.846h.417a.848.848,0,0,1,.852.846Zm3.991,0H86.192V234.751a.848.848,0,0,1,.852-.846h.417a.853.853,0,0,1,.859.846Zm3.978,0H90.176V234.751a.852.852,0,0,1,.852-.846h.417a.848.848,0,0,1,.852.846ZM396.5,332.79h-5.834V316.285c0-4.186,1.231-7.7,2.911-8.783,1.686,1.08,2.923,4.6,2.923,8.783Zm17.25,0H398.974V314.549a10.084,10.084,0,0,1,7.394-9.717,10.1,10.1,0,0,1,7.387,9.717Zm8.354,0h-5.834V316.285c0-4.186,1.238-7.7,2.917-8.783,1.686,1.08,2.917,4.6,2.917,8.783Zm27.681-134.105h-2.734V182.066a1.1,1.1,0,0,1,1.1-1.086h.537a1.1,1.1,0,0,1,1.1,1.086Zm5.133,0h-2.734V182.066a1.1,1.1,0,0,1,1.1-1.086h.53a1.1,1.1,0,0,1,1.1,1.086Zm5.121,0h-2.728V182.066a1.091,1.091,0,0,1,1.092-1.086h.537a1.1,1.1,0,0,1,1.1,1.086Zm5.127,0h-2.728V182.066a1.091,1.091,0,0,1,1.092-1.086h.543a1.1,1.1,0,0,1,1.092,1.086Zm5.127,0H467.57V182.066a1.091,1.091,0,0,1,1.092-1.086h.537a1.1,1.1,0,0,1,1.1,1.086ZM514.743,299.01H504.16V269.093c0-7.608,2.235-14,5.285-15.949,3.056,1.951,5.3,8.341,5.3,15.949Zm31.286,0h-26.8V265.936a18.326,18.326,0,0,1,13.4-17.642,18.328,18.328,0,0,1,13.4,17.642Zm15.16,0H550.6V269.093c0-7.608,2.241-14,5.3-15.949,3.05,1.951,5.291,8.341,5.291,15.949Z" transform="translate(25.511 109.427)"/><path class="h" d="M-6.865,698.036v642.719H1852.424V703.441h5.872v-5.563h-12.824a36.321,36.321,0,0,0-22.68-45.764c.013-.19.057-.36.057-.543a12.622,12.622,0,0,0-8.366-11.864l-1.781-5.43a2.961,2.961,0,0,0,.568-1.673,3.071,3.071,0,0,0-1.812-2.791l-1.1-17.08a.158.158,0,0,0-.171-.12.151.151,0,0,0-.164.12l-1.1,17.08a3.065,3.065,0,0,0-1.806,2.791,2.921,2.921,0,0,0,.575,1.673l-1.793,5.43a12.616,12.616,0,0,0-8.36,11.864c0,.183.038.354.051.543a36.321,36.321,0,0,0-22.68,45.764h-12.824v.158h-1.263V633.589h.682a2.933,2.933,0,0,0,2.93-2.936V629a2.932,2.932,0,0,0-2.93-2.93h-3.965a21.193,21.193,0,0,0,.278-3.309,21.8,21.8,0,0,0-10.374-18.57,34.405,34.405,0,0,1-9.755-9.1,2.5,2.5,0,0,0-.713-4.13l-.638-9.9h-.745l-.644,9.9a2.515,2.515,0,0,0-1.5,2.3,2.479,2.479,0,0,0,.8,1.825,33.955,33.955,0,0,1-9.768,9.1,21.556,21.556,0,0,0-10.09,21.878h-3.845a2.932,2.932,0,0,0-2.93,2.93v1.654a2.933,2.933,0,0,0,2.93,2.936h.562v41.092h-9.534a30.959,30.959,0,0,0,3.82-14.687c0-17.85-16.252-33.465-40.613-42.2-15.88-5.683-29.386-13.342-39.918-22.257a5.54,5.54,0,0,0,.676-2.57,5.712,5.712,0,0,0-3.422-5.222l-1.452-22.51h-1.692l-1.458,22.51a5.722,5.722,0,0,0-3.422,5.222,5.532,5.532,0,0,0,.688,2.57c-10.544,8.953-23.917,16.524-39.924,22.257-24.36,8.739-40.612,24.354-40.612,42.2a29.545,29.545,0,0,0,1.4,8.7h-6.971a77.331,77.331,0,0,0-64.846-99.611l-4.881-14.851c-.057-.158-.492-.284-1.13-.385l-2.658-41.18a.365.365,0,0,0-.695,0l-2.665,41.18c-.631.1-1.073.227-1.124.385l-4.887,14.851a77.4,77.4,0,0,0-62.958,48.511L1382,574.223h4.073v-7.709h-4.218l-1.042-55.009h4.641v-4.458h-2.721v-1.5h-2.772V485.535h2.772v-1.913h-4.363a12.47,12.47,0,0,0,.581-3.782A12.71,12.71,0,0,0,1372.874,469a20.177,20.177,0,0,1-5.689-5.329h-.006a1.462,1.462,0,0,0-.41-2.412l-.335-5.133a4.788,4.788,0,0,0,.682.063,3.806,3.806,0,0,0,3.776-3.309,3.207,3.207,0,1,1-4.275-4.287,3.8,3.8,0,0,0-.688,7.394l-.341,5.272a1.46,1.46,0,0,0-.417,2.412h-.006a19.422,19.422,0,0,1-5.708,5.329,12.735,12.735,0,0,0-6.062,10.835,12.473,12.473,0,0,0,.581,3.782h-4.357v1.913h2.677v20.016h-2.677v1.5h-2.753v4.458h4.672l-1.048,55.009h-4.237v7.709h4.085L1349.19,634.3h-6.024v7.716h5.879l-.518,27.195h-20.875a82.731,82.731,0,0,0,10.159-39.185c0-47.6-43.34-89.244-108.337-112.555-42.191-15.129-78.573-35.245-106.614-58.9a15.093,15.093,0,0,0,1.945-7.324,15.245,15.245,0,0,0-9.13-13.961l-3.883-60.022h-4.5l-3.889,60.022a15.255,15.255,0,0,0-9.13,13.961,15.063,15.063,0,0,0,1.957,7.337c-28.066,23.735-64.082,43.63-106.62,58.885a261.417,261.417,0,0,0-33.938,14.863V358.818h1.1a4.728,4.728,0,0,0,4.729-4.736V351.4a4.732,4.732,0,0,0-4.729-4.736h-6.415a35.727,35.727,0,0,0,.455-5.354,35.258,35.258,0,0,0-16.776-30.036,55.315,55.315,0,0,1-15.779-14.712,4.053,4.053,0,0,0-1.149-6.68l-1.036-16.019h-1.206l-1.035,16.019a4.053,4.053,0,0,0-1.143,6.687A55.015,55.015,0,0,1,896.9,311.279a35.238,35.238,0,0,0-16.77,30.036,35.726,35.726,0,0,0,.442,5.354h-6.219a4.732,4.732,0,0,0-4.729,4.736v2.677a4.728,4.728,0,0,0,4.729,4.736h.915V469.163a169.612,169.612,0,0,0-71.615-90.1,265.7,265.7,0,0,1-75.643-70.522,19.441,19.441,0,0,0-5.5-32.025l-4.407-68.06a51.353,51.353,0,0,0,8.985.84,50.586,50.586,0,0,0,50.134-44.016,42.509,42.509,0,1,1-56.72-56.726,50.567,50.567,0,0,0-9.174,98.2l-4.515,69.758a19.431,19.431,0,0,0-5.493,32.038,263.314,263.314,0,0,1-75.656,70.51,169.292,169.292,0,0,0-72.84,194.045H512.59c.19-2.639.3-5.3.3-8a109.432,109.432,0,0,0-96.7-108.653l-6.92-21.039c-.076-.208-.688-.4-1.585-.543l-3.77-58.3a.519.519,0,0,0-.991,0l-3.776,58.3c-.89.145-1.509.335-1.579.543l-6.92,21.039a109.456,109.456,0,0,0-91.82,141.032H261.566V613.92h17.345v84.117H239.606L237.383,580.8h10.3V567.252H237.125l-2-105.515h7.148V448.2h-7.413l-1.831-96.612h8.164v-7.83H236.4v-2.627h-4.862V305.981H236.4v-3.365h-7.653a22,22,0,0,0,1.01-6.636A22.34,22.34,0,0,0,219.1,276.943a35.3,35.3,0,0,1-10-9.364h-.006a2.556,2.556,0,0,0,.821-1.863,2.59,2.59,0,0,0-1.547-2.368l-.587-9.023a6.826,6.826,0,0,0,1.193.12,6.7,6.7,0,0,0,6.636-5.834,5.627,5.627,0,1,1-7.5-7.507,6.676,6.676,0,0,0-1.219,12.975l-.6,9.269a2.59,2.59,0,0,0-1.547,2.368,2.551,2.551,0,0,0,.815,1.863h-.006a34.231,34.231,0,0,1-10.027,9.364,22.373,22.373,0,0,0-10.639,19.037,21.8,21.8,0,0,0,1.016,6.636h-7.646v3.365h4.7v35.151h-4.7v2.627h-4.843v7.83h8.215l-1.85,96.612h-7.451v13.537h7.192l-2.02,105.515H166.905V580.8h10.324l-2.241,117.24H155.18V488.743h1.692a7.206,7.206,0,0,0,7.2-7.223v-4.079a7.211,7.211,0,0,0-7.2-7.23h-9.781a54.351,54.351,0,0,0,.688-8.158,53.741,53.741,0,0,0-25.572-45.771,84.425,84.425,0,0,1-24.05-22.421,6.172,6.172,0,0,0-1.749-10.185l-1.585-24.4H93l-1.578,24.4a6.184,6.184,0,0,0-1.749,10.2,83.947,83.947,0,0,1-24.057,22.409,53.735,53.735,0,0,0-25.566,45.771,54.338,54.338,0,0,0,.682,8.158H31.253a7.212,7.212,0,0,0-7.211,7.23v4.079a7.207,7.207,0,0,0,7.211,7.223h1.4V698.036Zm1756.489-45.714c0-5.784,1.7-10.652,4.022-12.123,2.317,1.471,4.022,6.339,4.022,12.123v22.737h-8.044Zm-23.855-2.406a10.578,10.578,0,1,1,20.382,0v25.143h-15.444v-.379h-4.938Zm-11.454,2.406c0-5.784,1.7-10.652,4.022-12.123,2.324,1.471,4.022,6.339,4.022,12.123v22.358h-8.044ZM1374.907,489.153a1.077,1.077,0,0,1,1.08-1.086h.53a1.077,1.077,0,0,1,1.08,1.086v16.4h-2.69Zm-5.064,0a1.082,1.082,0,0,1,1.086-1.086h.53a1.082,1.082,0,0,1,1.086,1.086v16.4h-2.7Zm-5.058,0a1.081,1.081,0,0,1,1.08-1.086h.53a1.082,1.082,0,0,1,1.086,1.086v16.4h-2.7Zm-5.064,0a1.082,1.082,0,0,1,1.086-1.086h.531a1.082,1.082,0,0,1,1.086,1.086v16.4h-2.7Zm-5.057,0a1.081,1.081,0,0,1,1.08-1.086h.53a1.082,1.082,0,0,1,1.086,1.086v16.4h-2.7Zm-417.1-100.041c0-9.345,2.753-17.212,6.5-19.605,3.75,2.393,6.5,10.26,6.5,19.605V425.88H937.567ZM899,385.23a22.516,22.516,0,0,1,16.467-21.689,22.521,22.521,0,0,1,16.474,21.689v40.65H899Zm-18.526,3.883c0-9.345,2.747-17.212,6.5-19.605,3.751,2.393,6.5,10.26,6.5,19.605V425.88H880.475ZM222.653,312.32a1.9,1.9,0,0,1,1.907-1.9h.928a1.9,1.9,0,0,1,1.9,1.9v28.811h-4.736Zm-8.884,0a1.9,1.9,0,0,1,1.9-1.9h.928a1.908,1.908,0,0,1,1.907,1.9v28.811h-4.735Zm-8.89,0a1.9,1.9,0,0,1,1.907-1.9h.928a1.9,1.9,0,0,1,1.9,1.9v28.811h-4.735Zm-8.89,0a1.9,1.9,0,0,1,1.9-1.9h.934a1.9,1.9,0,0,1,1.9,1.9v28.811h-4.736Zm-8.884.006a1.9,1.9,0,0,1,1.9-1.907h.934a1.9,1.9,0,0,1,1.9,1.907v28.818H187.1Zm-59.51,222.591c0-14.257,4.2-26.235,9.913-29.878,5.721,3.643,9.913,15.621,9.913,29.878v56.038H127.594ZM68.8,528.989a34.319,34.319,0,0,1,25.111-33.042,34.313,34.313,0,0,1,25.1,33.042v61.967H68.8Zm-28.23,5.929c0-14.257,4.193-26.235,9.913-29.878,5.721,3.643,9.913,15.621,9.913,29.878v56.038H40.573Z" transform="translate(235.72 -108.558)"/></g></g></g></svg>